<svg xmlns="http://www.w3.org/2000/svg" viewBox="0 0 290.9 290.9"><path d="M40.7 91c-10 0-18.2 7-18.2 16v68c0 8.8 8 16 18.2 16 10 0 18.2-7 18.2-16v-68c0-8.8-8.2-16-18.2-16zm137.6-66.6l16-16a5 5 0 0 0 0-7.1c-2-2-5-2-7 0L167.6 21a93 93 0 0 0-22.1-2.7 93 93 0 0 0-21.8 2.6L104.2 1.5c-2-2-5-2-7 0a5 5 0 0 0 0 7.1L113 24.3c-26.4 10-44.7 32-44.7 57.6 0 .3 154.8 0 154.8 0 0-25.4-18.2-47.3-44.5-57.5zm-55.6 39.3c-5 0-9-4-9-9 0-5 4-9 9-9s9 4 9 9c0 5-4 9-9 9zm45.5 0c-5 0-9-4-9-9 0-5 4-9 9-9s9 4 9 9-4 9-9 9zM250 91c-10 0-18.2 7-18.2 16v68c0 8.8 8.2 16 18.2 16s18.2-7 18.2-16v-68c0-8.8-8.2-16-18.2-16zm-182 109c0 15 12.2 27.2 27.2 27.2V275c0 8.8 8 16 18.2 16 10 0 18.2-7 18.2-16v-47.7H159V275c0 8.8 8 16 18.2 16 10 0 18.2-7 18.2-16l.1-47.7c15 0 27.3-12.2 27.3-27.2V91H68.2v109z"/></svg>