<svg xmlns="http://www.w3.org/2000/svg" viewBox="0 0 112.2 112.2"><g fill="#dc4e41"><circle cx="56.1" cy="56.1" r="56.1"/><path d="M19.5 58.6c-.2 9.7 6.4 19 15.6 22 8.6 3 19.2.7 25-6.6 4.2-5.2 5-12 4.7-18.5h-22v8l13.3.2c-1 3.8-3.7 7.4-7.5 8.8-7.4 3.3-17-1-19.3-8.8-2.8-7.5 1.8-16.5 9.4-18.7 4.7-1.7 9.6.2 13.7 2.7l6-6c-4.6-4-10.5-6.2-16.6-5.7a23 23 0 0 0-21.9 23.1zm59.5-10v6.6h-6.6V62H79v6.6h6.6V62h6.6v-6.6h-6.6v-6.6H79z"/></g><path d="M19.5 58.6a23 23 0 0 1 21.9-23.1c6-.5 12 1.8 16.6 5.7l-6 6c-4-2.5-9-4.3-13.7-2.7-7.3 2.3-12 11.3-9.3 18.8 2.4 7.7 12 12 19.4 8.7 4-1.4 6.4-5 7.5-8.8L42.6 63v-8h22c.5 6.4-.5 13.3-4.7 18.5C54.2 81 43.6 83 35 80 26 77 19 68 19.3 58zm59.5-10h6.6v6.6h6.6V62h-6.6v6.6H79V62h-6.6v-6.6H79v-6.6z" fill="#fff"/></svg>