<svg xmlns="http://www.w3.org/2000/svg" viewBox="0 0 89.76 89.76" fill="#6a453b"><path d="M58.26 23.88H31.5c-4.27 0-7.74 3.47-7.74 7.74v26.75c0 4.27 3.47 7.74 7.74 7.74h26.75c4.27 0 7.74-3.47 7.74-7.74V31.62c0-4.27-3.47-7.74-7.74-7.74zM44.88 58.9A13.9 13.9 0 0 1 30.98 45c0-7.66 6.24-13.9 13.9-13.9S58.8 37.33 58.8 45a13.9 13.9 0 0 1-13.9 13.9zm14.35-24.94a3.3 3.3 0 0 1-3.29-3.29 3.3 3.3 0 0 1 3.29-3.29 3.3 3.3 0 0 1 3.29 3.29 3.3 3.3 0 0 1-3.29 3.29zm-14.35 3c-4.43 0-8.03 3.6-8.03 8.03s3.6 8.03 8.03 8.03 8.03-3.6 8.03-8.03-3.6-8.03-8.03-8.03zm0-36.97A44.9 44.9 0 0 0 0 44.88a44.9 44.9 0 0 0 44.88 44.88 44.9 44.9 0 0 0 44.88-44.88A44.9 44.9 0 0 0 44.88 0zm27 58.38c0 7.5-6.1 13.62-13.62 13.62H31.5c-7.5 0-13.62-6.1-13.62-13.62V31.62C17.88 24.1 24 18 31.5 18h26.75c7.5 0 13.62 6.1 13.62 13.62v26.75z"/></svg>