<svg xmlns="http://www.w3.org/2000/svg" viewBox="0 0 112.2 112.2"><circle cx="56.1" cy="56.1" r="56.1" fill="#55acee"/><path d="M90.5 40.3c-2.4 1-5 1.8-7.7 2 2.8-1.7 5-4.3 6-7.4-2.6 1.5-5.5 2.7-8.5 3.3-2.4-2.6-6-4.2-9.8-4.2C63 34 57 40 57 47.4c0 1 .1 2 .3 3a38 38 0 0 1-27.6-14c-1.2 2-1.8 4.3-1.8 6.7 0 4.7 2.4 8.8 6 11.2-2.2-.1-4.3-.7-6-1.7v.2c0 6.5 4.6 12 10.8 13-1 .3-2.3.5-3.5.5-1 0-1.7-.1-2.5-.2C34 71.6 39 75.5 45 75.6a27 27 0 0 1-16.7 5.7 27 27 0 0 1-3.2-.2 38 38 0 0 0 20.6 6C70.3 87 83.8 66.7 83.8 49v-1.7c2.6-2 5-4.3 6.7-7z" fill="#f1f2f2"/></svg>